# xmcd
#
# Track frame offsets: 
#        150
#        16609
#        34220
#        49456
#        67935
#        87236
#        102237
#        115606
#        132406
#        148089
#        165453
#        182464
#        200931
#
# Disc length: 2940 seconds
#
# Revision: 0
# Processed by: cddbd v1.5.2PL0 Copyright (c) Steve Scherf et al.
# Submitted via: ExactAudioCopy v1.3
#
DISCID=b00b7a0d
DTITLE=Pat Green - Home
DYEAR=2015
DGENRE=Country
TTITLE0=Home
TTITLE1=Break It Back Down
TTITLE2=Girls From Texas (feat. Lyle Lovett)
TTITLE3=Bet Yo Mama
TTITLE4=Right Now (feat. Sheryl Crow)
TTITLE5=While I Was Away
TTITLE6=May the Good Times Never End (feat. Delbert McClinton and Lee 
TTITLE6=Roy Parnell)
TTITLE7=Life Good as It Can Be
TTITLE8=No One Here but Us
TTITLE9=I'll Take This House
TTITLE10=I Go Back to You
TTITLE11=Day One
TTITLE12=Good Night in New Orleans (feat. Marc Broussard)
EXTD=
EXTT0=
EXTT1=
EXTT2=
EXTT3=
EXTT4=
EXTT5=
EXTT6=
EXTT7=
EXTT8=
EXTT9=
EXTT10=
EXTT11=
EXTT12=
PLAYORDER=
